<?xml version="1.0" encoding="UTF-8"?>
<svg xmlns="http://www.w3.org/2000/svg" xmlns:xlink="http://www.w3.org/1999/xlink" width="64px" height="47px" viewBox="0 0 63 47" version="1.1">
<path fill="#FFFFFF" d="M 43.695312 46.472656 C 43.4375 46.777344 43.066406 46.960938 42.671875 46.984375 C 42.277344 47.011719 41.886719 46.875 41.59375 46.605469 C 40.976562 46.050781 40.921875 45.085938 41.464844 44.457031 L 58.207031 25.03125 L 1.496094 25.03125 C 0.667969 25.03125 0 24.34375 0 23.5 C 0 22.65625 0.667969 21.96875 1.496094 21.96875 L 58.207031 21.96875 L 41.464844 2.542969 C 40.921875 1.914062 40.976562 0.949219 41.59375 0.394531 C 42.210938 -0.164062 43.152344 -0.105469 43.695312 0.523438 L 62.605469 22.464844 C 63.117188 23.03125 63.136719 23.917969 62.625 24.507812 Z M 43.695312 46.472656 "/>
</svg>
